<svg version="1.2" xmlns="http://www.w3.org/2000/svg" viewBox="0 0 1195 1134" width="1195" height="1134">
	<title>Juste_lineart portrait_revision-ai</title>
	<style>
		.s0 { fill: #f9f871 } 
		.s1 { fill: #ffe290 } 
		.s2 { fill: #ffdceb } 
		.s3 { fill: #ffd7c2 } 
		.s4 { fill: #000000 } 
	</style>
	<g id="Layer 1">
		<g id="&lt;Group&gt;">
			<path id="&lt;Path&gt;" class="s0" d="m527 766.7c-31.2-8.4-60.5-23.8-85.2-44.8-12.5-10.7-23.9-22.7-37-32.7-4.1-3.2-9.5-6.3-14.3-4.3-3.6 1.6-5.5 5.6-6.7 9.4-6 19.9-0.2 41.6 9.2 60.1 9.4 18.5 22.2 35.1 31.5 53.7 9.2 18.4 14.8 38.6 16.3 59.2 1.6 20.2-0.7 40.5-0.4 60.7 0.3 20.3 3.5 41.2 14.8 58 11.3 16.8 32.4 28.3 52 23.5 23.3-5.7 36.2-30.4 42.5-53.5 4.7-17.3 7.4-35.2 7.9-53.2 0.5-18.7-1.2-37.9 4.4-55.7 4.2-13.2 12.2-25 16-38.2 1.5-4.9 2.3-10.4 0.1-15-1.7-3.7-5.1-6.2-8.4-8.5-10.2-6.7-21.5-11.7-33.3-14.5"/>
		</g>
		<g id="&lt;Group&gt;">
			<path id="&lt;Path&gt;" class="s1" d="m553.5 107.6c-3.1-19.2-20.8-35.6-38.1-44.4-17.4-8.7-37.4-10.8-56.7-9.5-49.4 3.2-96.3 27.5-131 62.7-34.7 35.3-57.9 80.9-70.8 128.6-10.3 37.9-13.4 81.3 8.7 113.7 24.1 35.4 77.6 46.6 113.9 23.8 51.2-32.1 55.6-108.4 101.9-147.1 19.6-16.4 46-25.1 60.8-45.9 16.4-23 14.2-53.9 11.3-81.9z"/>
		</g>
		<g id="&lt;Group&gt;">
			<path id="&lt;Path&gt;" class="s2" d="m469.4 567.6c8.3-36.2-20.8-65-51.3-77.1-13.7-5.4-31-6.4-41.6 3.9-3 3-5.2 6.6-6.8 10.5-8.8 20.3-1.4 44.3 10.8 62.8 7 10.7 15.9 20.7 27.3 26.6 11.4 5.9 25.7 7.2 37 1.1 12.1-6.5 19.9-12.2 24.6-27.7"/>
		</g>
		<g id="&lt;Group&gt;">
			<path id="&lt;Path&gt;" class="s3" d="m872.9 841.8c39.7 6.1 73.4 39.4 83.6 78.2 10.2 38.8 8.2 79.8 15.5 119.3 2.1 11.4 6.8 24.6 18.1 27.4 7.9 1.9 16.1-2.3 22.8-7.1 39.5-28 72.1-76.2 80.3-123.9 5.7-33.3 6.3-67.8-2.3-100.4-8.7-32.6-16.1-43.7-43.4-63.5-11.4-8.2-36.4-14.6-50.3-16.6-33.1-4.7-75.5-8.5-103 10.6-12.5 8.7-23.5 18-30 31.8-6.5 13.8-5.1 37.7 8.7 44.2z"/>
		</g>
		<g id="&lt;Group&gt;">
			<path id="&lt;Path&gt;" class="s4" d="m780.9 411.6c0 0 0-0.1 0-0.1-0.1 0-0.1 0.1 0 0.1z"/>
			<path id="&lt;Compound Path&gt;" fill-rule="evenodd" class="s4" d="m1118 1069.6c0 0.8-1.2 0.9-1.4 0.1q-1.8-6.2-3.7-12.5c-10.4-34.7-22-69.2-37.6-102.1-15.1-31.9-34-62.3-58.8-87.6q-9.2-9.4-19.3-17.7c-7.6-6.2-15.5-12.2-24.3-16.6-8.6-4.3-18.1-6.9-27.7-6.2-9 0.7-17.5 3.9-25.1 8.7-15.7 9.9-25.3 24.5-31.6 41 5.4-3 11.6-5.6 17.8-4 5.8 1.4 10.3 5.9 13.8 10.5 4.2 5.5 7.4 11.8 10.4 18 12.9 26.2 19.2 55 23 83.8 1.9 14.8 3.2 29.8 4.2 44.7 0.4 4.9 1.3 12.2-4 15-2.8 1.5-6.2 0.8-9.1 0.1-3-0.7-6-1.4-9.1-1.8-24.2-2.6-49.5 10.3-61 31.9-0.3 0.5-1.2 0.4-1.3-0.2-1-5.4-3.6-10.8-4.3-16.2-2.7-22.5-2.9-45.3-1.6-67.9 1.3-22.5 4-44.9 7.3-67.2 2.1-14.7 6.4-29.5 11.3-43.5-6.5 4.2-12.3 9.8-17.3 15.4-15.7 17.5-27.1 38.4-38.5 58.7-0.3 0.5-0.8 0.5-1.1 0.2-0.2-0.1-0.3-0.3-0.3-0.5q0-0.1 0-0.2 0 0 0 0 0 0 0-0.1 0.1 0 0.1-0.1 0 0 0-0.1c9.9-25.7 15.9-52.6 16.6-80.2 0.3-9.1 0.1-18.4-0.5-27.6-5.6 25-14.4 49.5-28.4 71-7.5 11.5-16.4 22.1-26.3 31.7q-4.8 5.5-10.1 10.6c-17.7 17.1-38.2 31.3-59.1 44.2-22.9 14-46.7 26.4-71.1 37.3-23.2 10.4-47.4 20.3-72.5 24.7-14.1 2.5-28.7 3.2-42.8 0.6-9.6-1.8-19.8-4.7-28.6-8.9-19.3-9.1-36.7-20.1-55-31.2-17.7-10.7-33.2-23.8-49.5-36.3-5.6-4.3-11.3-8.4-17.1-12.3q-1.7 0.7-3.3 1.4c-5.8 2.6-11.8 4.9-17.8 6.7-0.7 0.2-0.9-0.8-0.3-1.1 6.7-2.4 13.3-4.9 19.9-7.6q0.2-0.1 0.3-0.2c-9.2-6-18.9-11.3-29.3-15.4q-5.5-2.2-11.2-4.2c2.1 34.4-0.3 69.3-3.5 103.4 0 0.4-0.4 0.8-0.9 0.7-19.6-6.1-39.2-12.2-59.1-17.4-65.2-17.3-137.6-25.8-198.4 9.8-0.5 0.3-1.1-0.1-1.1-0.6-1.7-18.9-1.9-37.9-0.6-56.7 2.7-37.3 11.5-74.1 26.7-108.2 7.5-16.7 16.4-33 28.8-46.7 11.3-12.4 24.4-22.7 38.5-31.6 9.3-5.8 18.9-11.1 28.6-16.1 5.4-21.1 14.1-41.4 22.9-61.3 14.6-33.2 27.9-65.9 31-102.4 3.2-38.3-1.8-76.7-5.5-114.7-3.6-35.5-5.3-71.3-4.9-107 0.4-33.3 3.2-66.8 11.8-99 9.1-34.1 25.5-63.8 46.1-92.2 20.9-28.7 43.3-56.2 68.8-81 11.8-11.4 23.9-22.6 37.5-31.8 5.6-3.9 11.5-7.4 17.2-11.2 6.7-4.5 13.2-9.3 20.3-13.1 27.5-14.4 59.5-18 89.9-13.7 0.2-0.2 0.4-0.2 0.6-0.2 2.2 0.5 4.4 1.1 6.5 1.9 6.3 2.2 12 5.8 15.9 11.3q0.2 0.3 0.4 0.5c0-5.5 0.6-11 2.5-15.9 4.9-12.9 23-12.9 34.7-13.2 16.9-0.4 34.7 4.6 50.6 10.1 32.4 11.2 60.6 31 83.8 56 11.9 12.8 22.5 26.7 32.4 41.1 10.7 15.5 20.6 31.6 28.8 48.7 17.5 36.9 28.2 77.1 32.8 117.6 2.3 20.1 3 40.3 1.8 60.5-1.4 22.3-6.1 44.1-9.8 66-1.1 6.5-2.1 13.1-2.9 19.7q2.6 7.4 5 15c9.6 30.8 17.1 62.2 22.5 94q2.4 4.6 4.7 9.3c17.8 37.7 28.6 78.5 32.9 120q1.1 10.9 1.6 21.9 1.7 4.4 4.3 8.3c4.9 7.3 11.7 13.1 19.1 17.6 2.8 1.7 5.7 3.2 8.8 4.2 2.9 0.9 5.9 1.5 8.9 2 14.8 2.4 29.9 2.4 44.8 4.3 7.3 1 14.3 2.9 21.4 4.8 7.4 2.1 14.9 4.5 22.1 7.2 11.5 4.4 22.7 9.8 32.6 17.1 8.4 6.2 15.7 13.7 21.7 22.2 6.3 9 11.2 18.8 15.4 28.8 13.7 32 23.9 65.3 29.6 99.7 6.8 40.7 8.1 82.2 7.7 123.5zm-313.2-355.4c1.8 6.6 3.9 13.2 6.4 19.6 5 12.5 11.7 24.1 18 36 7.7 14.6 11.1 29 13.5 45.4q1.6 10.6 2.7 21.2c5.5-28.4 7.1-57.7 7.7-86.3 1.1-52.2-1.7-104.6-9.6-156.2q-1.1-7.1-2.3-14.2-4.4-8.9-9.2-17.6c-10.5-19.5-18.6-39-19.8-61.4-0.5-10.4 0.1-20.8 1.3-31.1q-4.1-12-8.6-23.8c-2.7 14.4-5.8 28.6-9.2 42.8-5.8 24-20.7 45-23.5 69.8-3.1 27.1 4.8 54.9 9.4 81.4 6.5 37.2 11.3 73.3 11.4 111.1 4.3-12.8 7.4-23.9 10.2-36.9-4.8-18-7.3-36.7-8.7-55.2-3.3-41.8-1.4-84 1.7-125.8 0.1-0.8 1.3-1.1 1.5-0.2 4.5 22.7 8.3 45.6 10.7 68.7 3.5 33.4 4.2 67.3-1.2 100.5q-1 6.2-2.4 12.2zm-7.8-44.1c1.4 13.6 3.6 27.3 6.9 40.6 2.1-10.4 3.7-20.9 4.6-31.6 4-47-2.2-94.5-11.2-140.6-3.1 43.7-4.9 88-0.3 131.6zm17.6-197.3c-1.8 17.4-1.8 35.1 2.7 52.1 4.8 17.8 14.4 33.7 23.1 49.9-6.2-34.6-14.7-68.7-25.8-102zm-252.7-390.9c1.9 3.6 3.2 7.5 4.5 11.3 0.9 2.4 1.8 4.7 2.9 7 1.3 2.6 3.2 4.9 4.7 7.5 3.5 5.9 5.9 12.5 7.7 19.2 3.6 13.1 4.7 26.8 5.3 40.3q6.7-0.7 13.5-0.9c-3.3-13.9-5.7-28.1-8.5-42.1-1.7-8.2-8.4-25.2 2-30.4 4.4-2.2 9.7-1.3 14.3-0.5q9.1 1.5 17.9 4.1c11.1 3.2 21.9 7.7 32.1 13.2 20.6 11.1 38.8 26.6 53.1 45.2 15.9 20.6 25.6 44.5 31.3 69.9 2.1 9.5 3.8 19.1 5.2 28.8q2.8 2.7 5.5 5.6c29.4 31.6 47.1 71.5 52.9 114.2 2.9 21.7 2.9 43.9-0.4 65.6q-0.3 1.7-0.6 3.5 4.5 11.5 8.6 23.2c1.4-11.1 3.4-22.2 5.4-33.1 3.8-21.1 7-42.1 7.4-63.5 0.4-20.4-1.1-40.8-4.2-61-6.1-39.6-17.9-78.9-36.7-114.3-8.4-15.9-18.5-31-29-45.5-10-14-20.9-27.3-33-39.5-24.9-24.7-55.1-42.9-89-52.2-16.3-4.5-32.3-7.4-49.2-5.3-8 1-17.3 2.2-21.1 10.2-2.8 6-2.9 13-2.6 19.5zm-175.4 892.4c23.6-12.1 39.5-31.4 46.3-57.4 7.1-27.6 3.1-56.6-3.6-83.8-13.4-54.2-39.9-104.2-51.4-158.8-5.4-25.4-7.2-51.4-6.4-77.4-9.3-26-13.7-53.8-13.4-81.3 0.2-19.2 1.6-38.8 5.6-57.6 0.9-4 2.5-8.1 3.6-12-6.4-5-12.5-9.3-19.3-13.5-1.2-0.8-2.1-1.2-2.6-2.5-0.4-1-0.6-2.1-0.6-3.1 0.1-2.4 1.2-4.8 2.6-6.7q0.2-0.2 0.4-0.4c-2.1-1.6-4-3.3-5.7-5.3-2.1-2.5-3.7-5.4-4.9-8.5-0.9 0.3-1.5 0.9-2.1 1.7-1.9 2.5-2.5 6-3 9-0.9 5-1.3 10.2-1.4 15.3-0.5 14.2 0.3 28.5 1.3 42.7 2.4 36.1 6.9 72 12.1 107.7 6 41.1 13.4 82.1 22.4 122.6 4.9 22.4 11.1 44.3 18 66.1 6 19 12.3 38.1 14.5 58 2.2 20.4 0.5 40.8-6.5 60.2-7.1 20.1-19 38.3-31.3 55.6-0.4 0.5-1.4 0.7-1.7 0q-5.4-12.2-10.9-24.3c-7-15.3-14-30.5-20.8-45.9-3.2-7.3-6.5-14.8-7.3-22.8-0.8-7.5 0.8-14.9 3.5-21.8 5.8-14.6 15.5-27.1 20.7-42 5.2-14.6 7.5-30.2 8.4-45.6 1.8-32.8-3.4-64.7-11.7-96.3-4.8-18.3-10.2-36.4-14.8-54.7q-6.7-27.2-9.9-55.1c-4.1-37.2-5.2-75.2-4.5-112.6 0.7-34.9 4.6-70.1 16.8-103 19.5-52.3 58-96.9 105.7-125.5 23.8-14.3 50-24.8 77.3-30.1 20.2-4 55.5-9.4 65.3 15.2 0.1 0.1 0 0.3-0.1 0.3 0.3 10.7 2.1 21.3 2.2 32 0.1 3.5-1.4 7.2-3.8 10-1.3 1.5-2.9 2.4-4.7 3.1 4.5 8.7 5 18.9 4.8 28.6 0.7 0.2 0.3 1.3-0.4 1.2-7.1-1.2-14.2-1.1-21.3 0.3q-4.6 0.9-9 2.4c17.8 2.7 35.6 9.3 53.5 4.3q0 0 0 0c19.4-5.4 39.8-9.9 60-7.1 8.3 1.1 16.4 3.5 23.7 7.6 7.6 4.3 14.3 10.5 20 17 12 13.6 20.1 30.1 25.5 47.3 2.7 8.7 4.5 17.5 6 26.4 1.5 8.8 3 18 7.7 25.7 9.2 14.9 29 16.2 39.8 29.3 0.5 0.5 0.2 1.5-0.6 1.5-8.7 0-17.4 0-26.1 0.1q-26.5 0.4-52.9 2.6c-16 1.3-32.3 2.4-47.8 7-6.9 2-13.6 4.8-19.9 8.3-4.2 2.4-8.3 4.9-11.8 8.4-4.8 5-8.8 10.3-15.4 13.1-4.7 2.1-9.8 2.9-14.8 3.3-7.2 0.6-14.4 0.4-21.5-0.9-11-2.2-20-7.9-29-14.2-9.8-6.9-20.2-12.1-32.1-14.2-13.6-2.5-27.9-2.1-41.7-2.4-7.4-0.1-14.7-0.1-22 0.3-6.9 0.4-13.6 1.5-20.3 2.8-3.1 12.9-6 25.9-9.2 38.8q-1.1 4.7-2.3 9.4 0 0.2 0 0.4c0.1 3.4 0 6.8 0 10.2 0.2 7.5 1.2 15 3 22.2 1.7 6.9 4 14 8.1 19.8 4.2 5.9 10.4 10 17 12.8 7.2 3 14.9 4.6 22.6 5.6 9.4 1.2 18.9 1.6 28.4 1 8.1-0.4 16.1-1.6 23.9-4 3.6-1.2 7.2-2.6 10.5-4.4 3.4-1.9 6.5-4.4 9.3-7.1 5.8-5.7 9.9-12.9 13.1-20.4 3.3-7.8 5.7-16 7.5-24.3 0.4-1.9 0.9-3.9 0.9-5.9 0-2.1-0.4-4.3-0.9-6.3-1-4.1-2.6-7.8-5.4-11-5.4-6-12.4-10.6-19.6-14.2-15.7-7.8-33.4-10.1-50.8-10.2-9.6 0-19.1 0.6-28.6 1.1-8.6 0.5-17.5 1.2-25.3 5.1-0.2 0-0.1 0.1-0.2 0.2-1.2 1-2.3 2.1-3.1 3.5-3.1 5.8-1.5 13.5 2.9 18.3 1 1.2 2.3 2.2 3.7 2.9 1.6 0.9 3.4 1.2 5.2 1.7 3.4 1 6.7 2.4 9.5 4.5 2 1.5 3.8 3.3 5.9 4.6 3 1.8 6.5 2.2 9.9 2.9 3.6 0.7 7.3 1.5 11 1.8 4.4 0.3 8.7 0.1 13.1-0.1 4.2-0.2 8.3-0.6 12.4-1.6 3.8-0.9 7.5-2.5 10.3-5.3 2.5-2.4 4.4-5.2 6.1-8.1 2-3.3 3.9-6.7 5.7-10.2 0.6-1.1 1.5-2.2 1.2-3.6q-0.1-0.4-0.2-0.7-0.3 0.2-0.7 0.3c-0.5 0.3-1 0.3-1.6 0.3q-0.4 0-0.9 0-0.1 0.1-0.3 0.1c-3.8 1.2-8 2.7-10.5 5.9-0.3 0.3-0.2 0.2-0.5 0.6q-0.1 0.1-0.2 0.3-0.1 0.1-0.2 0.2c-0.1 0.2 0.1-0.1-0.1 0.1-0.3 0.5-0.7 1-1.1 1.4-1.5 1.4-3.5 2.2-5.3 3-6.9 2.7-14.3 3-21.5 2.1-3.8-0.5-7.4-1.2-11.1-2-3.7-0.8-7.3-1.9-11-2.5-5.5-1-11.3-0.7-16.8-1.6q-0.6 0.1-1.1-0.1-1.1-0.1-2.2-0.4c-0.6-0.1-1-1.1-0.4-1.6q2.4-2 5-3.8c3.9-2.7 7.9-5.1 12.2-7 4.4-2 9.2-2.9 14-3.5 4.7-0.5 9.5-1 14.3-1.1 4.3 0 8.7-0.4 13-0.7 4.8-0.2 9.7-0.3 14.4 0.7 2.2 0.5 4.4 1.2 6.5 2.2 2 1 4.2 2.3 5.7 4.1q0 0 0 0c1 0.2 1.3 1.2 1.1 2q0.3 0.5 0.4 1.1c0.2 0.6 0.3 1.2 0.2 1.7-0.1 0.7-0.4 1.2-0.7 1.7q-1.7 3.3-3.5 6.5c-1.4 2.6-2.9 5.3-4.6 7.8-2.3 3.5-5.3 6.8-9.1 8.8-3.7 1.9-7.8 2.8-12 3.4-4.3 0.5-8.7 0.7-13.1 0.7-4.1 0.1-8.2-0.2-12.3-0.9-1.9-0.3-3.8-0.7-5.7-1.1-2.1-0.5-4.3-0.8-6.4-1.4-2.6-0.7-4.8-2.2-6.8-3.9-2.3-1.9-4.6-3.8-7.3-5.1-2-0.9-4.2-1.6-6.3-2.1-1.7-0.4-3.2-0.9-4.7-1.8-2.8-1.8-4.9-4.5-6.2-7.4-2.6-6.2-1.9-13.9 3.3-18.4 0.2-0.2 0-0.1 0.2-0.2 3.7-2.2 7.7-3.7 12-4.6 4.2-0.9 8.4-1.2 12.7-1.5 4.8-0.3 9.5-0.7 14.3-0.9 9.9-0.5 19.8-0.6 29.6 0.3 16.8 1.4 33.9 5.9 47.8 15.8 3.3 2.4 6.5 5 9.3 8 1.4 1.5 2.7 3.1 3.7 4.9 1 1.8 1.6 3.8 2.3 5.8 1.2 3.9 1.8 8 1 12.1q-1.2 6.3-3 12.4c-4.4 15.9-11.7 32.3-25.8 41.8-6.4 4.3-14.1 6.7-21.6 8.3-8.7 1.8-17.7 2.3-26.5 2.3-9.3-0.1-18.7-1-27.9-2.9-7.2-1.5-14.5-3.9-20.8-7.8-6.2-3.8-11-9-14.1-15.5-3.3-6.9-5.3-14.4-6.6-21.9q-1-5.6-1.4-11.3c-0.1-2.4 0.2-4.7 0.2-7.2-2.7 10.5-5.8 20.9-8.5 31.4-0.1 0.4 0.1 1 0 1.4 1.1 2.9 2 5.7 3.3 8.6 6.4 13 16.4 22.3 30.2 27.2 13.7 5 28.6 5.2 43 5.3 7.9 0.1 15.8 0.4 23.6-0.3 7.7-0.8 14.9-2 21.7-5.7 11.6-6.2 22.7-15.3 29.3-26.8 3.3-5.9 5-12.6 7.2-18.9 2.3-6.7 4.6-13.4 8-19.6 2.8-5.2 6.8-10 12.5-12.1 5.5-1.9 11-0.6 15.3 3.1 0.3 0.2 0-0.1 0.2 0.1 0.6 0.5 1.3 1.7 1.9 2.2 0.8 0.7 1.4 1.3 1.8 2.3 0.6 1.2 1 2.5 1.3 3.8 1 3.3 1.7 6.7 2.8 10 2.6 7.9 6.8 15.2 10.7 22.5 3 5.7 5.6 11.7 9.5 16.8q0.8 0.6 1.5 1.3 1.8 1.7 3.4 3.6c5.4 4.1 12.1 4.3 18.9 5.2 16.9 2.2 34 2.3 51 0.1 8.3-1.1 16.6-2.2 24.7-4.4 7.4-2.1 14.7-4.2 20.5-9.5 5.7-5.2 9.7-12 13.4-18.7q3.3-6 6.4-12.1c0.8-22.3-1-44.5-7.9-65.3q0 0.3 0 0.6c0.4 8.4 0.3 16.9 0.1 25.3-0.3 8.7-0.8 17.4-1.6 26-0.8 8.1-1.9 16.2-4.8 23.8-1.6 4-3.6 7.6-6.4 10.8-2.5 2.7-5 5.2-8.1 7.2-4.1 2.6-8.8 3.9-13.5 5.2q-7.9 2.1-15.9 3.7c-10.7 2.2-21.5 3.5-32.4 4-9.6 0.5-19.6-0.2-28.9-3-4.2-1.3-8.2-3.2-11.7-6-3.3-2.7-6.1-6-8.5-9.6-2.4-3.7-4.4-7.7-6.1-11.8-1.8-4.5-3.4-9.1-4.2-13.9-0.9-5.3-1.1-10.7-0.5-15.9 0.3-2.7 0.8-5.3 1.3-7.9q0.8-3.9 2.1-7.7c0.1-0.3 0.4-0.4 0.7-0.3 3.3 1.5 6.7 2.7 10 4 4.1 1.7 8.1 3.5 12.2 5.2 14.2 6 29.8 10.8 45.2 6.2 3.5-1.1 6.6-2.8 9.7-4.6 2.7-1.6 5.4-3.2 7.9-5.1 2.3-1.8 4.6-3.9 6.1-6.4 1.4-2.5 2-5.4 1.7-8.3q-0.1 0-0.1-0.1c-0.1-0.4-0.3-0.7-0.7-0.9-8.4 4.5-17.1 9.1-26.4 11.8-7.4 2.1-14.6 2.8-22.2 1.9-4.4-0.5-8.7-1.5-13-2.7q-3.7-1.1-7.4-2.4c-2.5-0.9-5-1.8-7.7-2-2-0.2-3.9 0-5.8 0.1-1.1 0.1-2.4 0.4-3.4 0.2-2.9-0.7 1-5.5 2.1-6.4q0.1-0.1 0.1-0.1 0.3-0.3 0.7-0.6 1.3-1 2.7-2 0.2-0.2 0.4-0.4c0.4-0.4 0.9-0.7 1.3-0.9q1-0.6 2.1-1.1 0.5-0.3 1-0.5 0.6-0.3 1.3-0.7 0 0 0 0c-4.6 1-10.6 2-13.9 5.6-0.8 1.3-1.6 2.8-2.3 4.2-0.5 1-1.9 0.3-1.7-0.7 0.7-2.9 2.4-4.9 4.5-6.5q0.7-0.7 1.3-1.5c9.1-10.3 22.6-15.6 35.5-19.3 16.7-4.7 34.1-7.6 51.4-8.8 17.6-1.3 35.3-0.7 52.8 1.6q6.5 0.8 13 2 3.3 0.6 6.5 1.2c1.7 0.4 3.3 0.9 4.3 2.4 0.9 1.5 0.8 3.4 0.7 5q-0.2 3.2-0.7 6.3-0.8 6.2-2.2 12.2c-3.9 16.5-10.9 32-18.6 47q-0.5 1-0.9 1.9c-0.8 21.3-4 42.5-7.4 62.6-7.4 44.4-18.2 88.9-32 131.7-6.4 20.3-14.2 40.3-24.6 58.9-10.3 18.5-23.1 35.4-36.4 51.7-26.5 32.8-56 64.9-70.9 105-1.8 4.7-3.4 9.7-4.8 14.7 0.5 8.9 2.2 17.7 4.9 26.2 3.6 11.1 8.7 21.7 14.6 31.8 4.7 8.3 10.1 16.3 15.2 24.3-3.3-7.4-3.6-16.2-1.6-24.3 1.3-5.2 3.5-10 6.3-14.5-3.6-15.7-4.7-31.9-3.4-48 2.4-28.7 12.7-55.8 29.9-78.9 18.8-25.3 42.8-46.2 60.7-72.1 15.9-23 27.2-48.5 34.4-75.4 7.3-27.6 10.8-56 14.7-84.2 0.1-0.7 1.2-0.5 1.2 0.2 0.7 33.2 4.4 66.5 3.1 99.8-2.5 59.1-26.6 113.8-60 161.9-16.8 24.3-35.7 47-55.6 68.9-8.1 8.9-17.2 17.7-23.5 28.1 2.6 11.2 6.4 22.1 11.5 32.3 1 2.2 2.7 7.3 4.6 8.7 1.4 0.9 1.4 0.1 2.6-1.3q1.5-1.8 3.1-3.5c4.6-5 9.7-10.3 14.9-14.7q0.4-0.2 0.7-0.5c0.1-3.1 2.9-6.1 4.7-8.9 4.8-7 10.1-12.8 16.1-18.6 10-9.6 19.1-20 27.4-31.1 16.5-22 29.6-46.4 39.9-71.9 8.4-20.7 13.7-42 20.3-63.3 3.4-10.9 7.5-21.7 11.4-32.5q1-2.6 2-5.3c0.1-21-1.2-42.1-3.6-63-3.6-32.3-10.2-64-15.5-96-2.4-14.6-3.9-29.6-1.4-44.4 2.2-13.4 7.9-26 13.2-38.5 2.9-6.7 5.8-13.5 7.9-20.6 1.5-4.9 2.4-9.9 3.6-14.8 2.2-9.2 5-18.2 7-27.4q1-4.5 1.8-9.2c-18.4-47.1-41.5-92.1-50.4-142.2-2.7-15.2-4.7-29.3-7.1-44.6-6.5-6.4-13.4-12.4-20.6-17.9 1.5 4.2 2.8 7.2 3.8 11.5 0.5 2.5 0.9 5 1.2 7.5 0.3 2.7 0.5 5.5 0.1 8.2-0.1 0.9-0.3 1.8-0.8 2.5-1 1.3-2.6 2.1-4.1 2.5-2.3 0.7-4.9 0.7-7.3 0.4-4-0.6-7.9-2.2-11.6-3.8-5.1-2.2-10.1-4.7-15-7.3-10.6-5.6-20.9-11.7-31.3-17.6-4.2-2.4-8.5-4.7-12.8-6.8-1.5-0.7-3.1-1.4-4.7-2-2.7-0.9-5.5-1.2-8.4-0.7-6.9 1.1-13.1 5.3-18.7 9.3-5.8 4.2-11.3 8.9-17.4 12.6-0.3 0.2-0.7 0-0.9-0.2q-1.1-1.6-2.1-3.3c-2.8-5-4.6-10.7-5.8-16.3-1.4-6.6-2.2-13.3-2.6-19.9-1.2-15.4-1-30.9-1.7-46.3q0-0.3 0-0.6-4.6 0.4-9.1 1.1c-0.2 0-0.3-0.2-0.3-0.3q-0.2-0.1-0.3-0.3c-1.8-5.5-3.2-11.1-4.5-16.7-3.7-15.8-6.6-31.8-8.7-47.8-1-6.9-2.3-14.7-2.6-22.4-0.9-1.7-2.1-3.3-3.4-4.7-5.1-5.7-12.4-8.7-19.7-10.3q-0.3-0.1-0.4-0.3c-8.2-1.1-16.3-1.7-24.6-1.6-16.4 0.2-33 2.8-48.5 8.4-15 5.4-27.2 14.3-40.5 22.8-13.3 8.7-25.8 17.7-37.6 28.4-13 11.7-25.3 24.1-37.1 37.1-11.9 13.2-22.7 27.2-33.5 41.3-11 14.7-21.9 29.5-31.3 45.3-17 28.7-26.9 60.8-32 93.7-10.7 69.5-2.8 140.4 3.7 209.9 3.3 36.1 5.1 72.9-2.9 108.5-7.2 32.3-22.5 61.9-35.1 92.2-5.4 13-10.1 26.1-13.5 39.5 17.2-8.8 34.9-16.7 52.3-25.3 2.8-7 5.9-13.9 9.3-20.6 8.9-17.4 19.4-33.9 26.1-52.3 4.6-12.6 7.6-25.6 9.5-38.8-4.3-10.9-8.5-22-10.2-33.7-2.5-17-3.3-34.4-5.2-51.5-4.6-41.3-10.1-82.6-12.1-124.1-3.6-72.4 4.5-148.9 44.9-211 36.1-55.3 92.7-92.8 149.8-123.5 14.8-8 29.7-15.6 44.7-23 7.6-3.8 28-16.6 30.1-0.4 1.9 14.5-5.7 29.6-14.7 40.3-11.1 13.2-26 21.9-41.5 28.9-16.4 7.5-33.5 13.6-49.5 22.2-14.7 7.9-28.6 17.3-41.5 28-25.4 21-46.8 47-62.5 76-37.9 70.1-37.5 154.4-33.5 231.9 2 38.5 6.9 76.9 5 115.4-0.4 8.2-1.1 16.3-2.2 24.4 8.4 21.6 19.7 43.6 14 66.8-3.5 13.9-15.7 23.4-27.5 30.4-9.4 5.7-21.5 10.7-31.4 15.5-6 14.9-10.7 30.2-14.4 45.8 24 3.2 45.9 17 61.9 35 22.7 25.5 32.7 59.1 36.2 92.6q0.7 6.9 1.2 13.9c5.8 2 12.2 3.8 17.8 6.2 8.7 3.9 18.2 8.1 26.1 13.3zm338.4-739.7c7.4 5.5 14.5 11.5 21.1 18-5.1-31.7-12.3-62.7-31.2-89.9-24.2-34.5-61.9-59.5-103.4-67.4-5.7-1.1-14.6-3.4-19.2 1.6-4.6 5.1-1.5 13.8-0.3 19.6q4.1 20.3 8.2 40.6c0.6 3 1.2 6.1 1.8 9.1 8-0.2 16-0.1 24 0.5 7 0.4 14.1 1.2 21 2.4 6 1.1 12 2.5 17.7 4.7 4.2 1.7 8.3 3.7 12.4 5.8 4.2 2.2 8.3 4.5 12.2 7.2 9 6.1 16.9 13.9 23.1 23 3.9 5.6 7.1 11.7 9.9 18.1q1.4 3.3 2.7 6.7zm-1 2.2c-20-14.8-42.5-26.2-66.4-33.2-12-3.5-24.8-4.4-36.5-8.6-11.4-4-16.9-14.1-19.8-25.4q-0.2-1.2-0.5-2.4-6.8 0.2-13.6 0.8 0.1 2.3 0.1 4.6c0.6 15.4 0.4 30.8 1.8 46.1 0.6 6.6 1.5 13.3 3.2 19.7 1.4 5.2 3.4 10.3 6.4 14.8 2.6-1.6 5.1-3.4 7.6-5.2 5.8-4.4 11.5-9.1 17.9-12.6 5.4-3 11.8-5.3 18-3.7 3.6 1 7 2.8 10.3 4.5 4.5 2.4 9 4.9 13.5 7.4 10.4 6 20.7 12.1 31.3 17.5 4.6 2.3 9.2 4.6 14 6.4 3.3 1.2 6.9 2.5 10.5 2.4 2.7-0.1 7.1-0.6 7.9-3.8 0.6-2.5 0.2-5.4 0-7.9-0.7-6.3-2.3-12.3-4.2-18.3-0.5-1.4-1-1.7-1.5-3.1zm52.3 57.6c-8.2-13.6-16.8-24.9-27.9-36.2 2.9 19.1 5.1 37.1 9.2 56 6.6 30.2 18.5 58.8 30.5 87.2 5.6 13.1 11.1 26.1 16.3 39.3 7.9-49.5-2.1-103.4-28.1-146.3zm-191.8-126.9q0.7-0.1 1.3-0.2c-0.7-14.6-1.9-29.6-6.3-43.7-2-6.5-4.8-12.9-8.7-18.6-1.5-2.2-2.7-4.3-3.8-6.7-0.9-2.4-1.7-4.8-2.6-7.2-0.7-1.9-1.4-3.8-2.2-5.7 0.9 14.8 3.3 29.7 5.9 44.3 2.4 12.9 4.8 26.2 9 38.6q0 0.2 0 0.3 3.7-0.7 7.4-1.1zm-243.3 788.3c-18.9-6.4-38.7-11.2-58.2-14.3-17.2-2.7-34.7-3.9-52.1-3.2q-0.3 10-0.5 20.1c0 0.9-1.1 0.9-1.4 0.2-2.7-6.6-5.4-13.1-7.9-19.7-36.9 2.8-73 13.9-103.8 35.1-0.6 0.4-1.2-0.2-1.1-0.8 6.8-39.7 13.9-81.8 38-115.2 11.1-15.2 25.7-28.6 42.7-36.8 0.7-9.1 2.1-17.1 4.3-25.8-21.9 11.3-41.2 23.9-58.5 41.3-27 27.1-43.5 65-52.8 101.4-9.3 36.8-12 75.1-8.7 112.9 49.6-28.6 105.4-30.9 160.3-20.2 27.2 5.3 56.3 15.6 82.8 23.8 3.4 1 7.4 2.9 10.9 3.3 2.9 0.4 2.3 0.9 3-2 0.3-1.2 0.2-2.7 0.4-4q0.9-10.8 1.6-21.6c0.8-14.2 1.4-28.3 1.6-42.5 0.1-10.5 0-21.2-0.6-32zm-99.7-141.3q-1.3-0.1-2.6-0.2c-14.1-1.1-27.8 1.9-40.3 7.7-0.9 9.7-0.9 19.5 0.1 29.6 2.9 29.6 12.5 58 23.3 85.7q3.7-0.3 7.4-0.4c0.3-11.1 0.7-22.2 1.2-33.3 1.5-29.9 4.4-59.8 10.9-89.1zm-3.8 28.7c-4.6 31-6 62.3-6.8 93.6 21.1-0.8 42.3 1.1 62.9 5.2 15.7 3.1 31.8 7 47.3 12.3-2.6-40.5-12.5-81.1-42-110.4-15.1-15-34.7-26.4-56-29.2q-3.2 14-5.4 28.5zm-8.3 95.1q-3.4 0.2-6.8 0.4 3.2 8.1 6.4 16.1 0.2-8.2 0.4-16.5zm-32.9-112.5q0.1-1.4 0.2-2.9c-7.3 3.6-12.8 8.2-19.2 13.5-39.7 33.6-49.8 86.7-58.1 135.4 5.3-3.6 9.4-6.9 15-10 26.6-14.3 56.1-22.1 86.1-24.4q-1-2.4-1.9-4.9c-13-34-24-69.9-22.1-106.7zm45.3-12.7q2-8.7 4.4-17.3c2.6-9.2 5.5-17.3 9-26.1-6.9 3.3-13.9 6.5-20.8 9.7-10.3 4.9-20.8 9.8-31.1 15-2.1 8.9-3.6 16.8-4.5 25.9 8.9-4.1 18.4-6.7 28.4-7.5 4.9-0.4 9.8-0.3 14.6 0.3zm481.3-579.9c-4.1-10.7-9.6-20.8-16.9-29.6-6.6-7.9-14.7-14.4-23.5-19.5-3.9-2.3-7.9-4.3-11.9-6.3-4.8-2.2-9.5-4.1-14.6-5.5-13.2-3.5-27.2-4.7-40.8-5q-6.6-0.2-13.1-0.1c2 9 5.2 17.7 13.5 22.7 9.1 5.4 20.7 5.8 30.8 8.2 27.5 6.3 53.6 18.4 76.5 35.1zm-444.8 522c14.8-8.1 31.6-18.3 35.1-36 3.2-16.3-0.7-33.7-6.3-49-1.6-4.2-3.2-8.3-4.9-12.5-1.3 8.9-3.2 17.7-5.8 26.4-5.4 18-14.2 34.2-23.2 50.6-5.5 10-10.3 20.3-14.6 30.7 6.7-3.3 13.2-6.7 19.7-10.2zm24.6-172.8c-2.1-39.7-5.8-79.2-5.9-118.9-0.1-38.1 1.7-76.5 10.2-113.7 7.6-33.3 21-64.8 40.6-92.7 17.9-25.5 40.3-47.8 66.1-65.4 13.4-9.2 27.8-17 42.7-23.5 16.7-7.2 34-13.3 49.4-23 14.8-9.3 28.1-22.7 33.5-39.6 1.4-4.5 2.2-9.2 2.3-13.9 0-3-0.1-6.5-2.3-8.9-1.9-2.3-5.9-1.9-8.5-1.3-7.9 1.9-15.6 7-22.8 10.6-29.5 14.8-56.8 30.6-84.6 48.4-27.7 17.7-53.9 37.9-76.1 62.2-23.7 26-41.7 56.4-53 89.7-25 73.2-19.7 151.4-11.2 226.9 2.3 20.7 4.5 41.4 6.7 62 1.8 16.6 2 34.1 6.4 50.2 1.9 6.8 2.5 13.6 5.1 20.4 3-23 2.7-46.5 1.4-69.5zm486.2 183.9c-3.4 9.3-6.9 18.5-9.8 28-5.2 16.4-9.1 33.2-14.9 49.4-15.1 42-37.4 82-68.9 113.9-5.6 5.7-11.5 10.8-16.3 17.2-2.4 3.2-4.7 6.4-6.7 9.9-0.5 0.8-1.5 1.5-1.8 2.7 20.2-16.4 42.2-29.3 59.6-49 35.9-40.8 54-94.8 59-148.3 0.9-9.5 1.4-19.1 1.6-28.7q-0.9 2.5-1.8 4.9zm-157.9 199c5.3-8.1 12.5-16.5 18.9-23.4 42.2-45.3 78.2-93.9 100.1-152.4 10.9-29 18.1-59.1 18.4-90 0.4-27.6-0.9-55.2-1.8-82.8-3 22.2-6.1 44.5-11.2 66.4-5.2 22.8-12.9 44.9-24.2 65.4-13.1 23.8-30.7 43.9-49 63.9-19.3 21-37.2 42.7-46.5 70.1-8.5 25.2-10.4 52.7-5.4 78.9 0.2 1.4 0.4 2.5 0.7 3.9zm134.1-457.8q0.2-2.8 0.3-5.6c-3 5.8-6 11.6-9.6 17-4.3 6.6-9.6 12.3-16.5 16.1-6.9 3.9-14.6 5.9-22.3 7.5-8.7 1.7-17.4 3.1-26.3 3.8-8.6 0.6-17.2 0.7-25.8 0.2q-6.8-0.4-13.6-1.2c-4-0.5-8-1-11.8-2.2q-3-0.8-5.7-2.2c2.1 3.3 3.5 7 3.9 11 0.3 3.7-0.5 7.3-1.9 10.6-1.4 3.3-3.5 6.6-6.6 8.6-1.6 1.1-3.5 1.4-5.4 1.7-2 0.2-4.1 0.2-6.1 0.7-3 0.7-5.5 2.9-7.8 4.9-2.5 2.3-4.9 4.7-7.5 6.9-1.2 1-2.4 1.9-3.7 2.6-1.6 0.8-3.4 1.2-5.2 1.3-3.7 0.3-7.5-0.4-11-1.7q-0.3-0.1-0.5-0.2 0.3 0.9 0.5 1.8c0.2 1.3 0 2.6-0.2 3.8-0.4 2-0.8 3.9-1.1 5.8-0.4 2-0.6 4 0.1 5.9 0.9 2.7 3.5 3.7 6.2 3.9 2.9 0.2 5.8-0.3 8.6-1.1 3.1-1 6.2-1.8 9.5-1.8 4.1-0.1 8.1 0.7 12.1 1 7.5 0.8 15.1 2 22.7 1.3 7.7-0.7 15.2-3 22.4-5.5 1-0.3 1.5 1.1 0.7 1.7q-0.3 0.2-0.7 0.4 0 0.1 0 0.1-1.5 1.8-2.8 3.7c-4.3 6.2-7.6 13-11 19.7-1.6 3-3.1 6.1-4.8 9.2q-2.9 5.1-6.7 9.5c-5.4 6-12 11-18.9 15.1-7.2 4.2-15.5 5.9-23.8 6.6-8.9 0.7-17.9 0.5-26.7-0.7-6.2-0.9-12.3-2-18.1-4.4-5.6-2.3-11-5.2-16.1-8.4q-3.5-2.1-6.9-4.3c-3-2-5.7-4.5-8.3-7-5.5-5.3-10.3-11.2-15.2-17-5.7-6.4-11.6-12.4-18.4-17.7q0-0.1-0.1-0.1c-1.7 0.4-3 2.2-3.8 3.7-1.1 1.8-2 3.8-2.6 5.9-0.6 2.5-0.7 5.1-0.8 7.7-0.3 5.7-0.6 11.5-0.9 17.2 0 0.8-1.2 1-1.4 0.2q-0.6-2.1-1.2-4.3c-1.5-5.7-3-11.4-4.6-17.1-1.4-5-3.1-10.1-3.3-15.3-0.3-4.8 0.8-9.6 3.9-13.3 2.6-3.1 6.3-5 10-6.6 3.8-1.6 7.9-2.7 11.6-4.4 2.9-1.3 5.4-3.1 7.8-5.2 5-4.5 8.8-10.4 13.4-15.4 2.6-2.9 5.5-5.5 8.6-7.9 1.8-1.2 3.6-2.3 5.4-3.4q2.6-1.5 5.3-2.8c0.5-0.9 1.1-1.8 1.7-2.5-4.2 2.9-8.8 5.5-13.5 7.5-7.3 3-15.1 4.1-22.9 4.4-7.8 0.2-15.5 0-23.2-0.1-7.4-0.2-14.7-0.5-22-1.5-13.9-2-27.4-6.9-37.1-17.5-5.8-6.2-9.9-13.7-13.1-21.6-7.7 31-13.5 62.4-14.3 94.5-0.1 4.9 0.2 12 0.4 16.9 1.6 2.6 2 3 3.8 5.5 11 15.3 24.8 29 39 41.2q11 9.6 22.9 17.9c8.2 5.7 16.6 10.9 24.6 16.9 15.2 11.3 30.4 20.8 48.4 27.3 16.2 5.8 33.4 8.7 50.5 8.4 15.3-0.3 32.3-0.6 45.8-8.3 14.5-8.2 20.8-23.2 31.7-35.2 12.7-14.1 27.6-26 41.2-39.2 13.5-13.2 24.8-27.9 33.5-44.7 16.9-33 27.8-73.3 34.5-109.4 0.1-0.6 0.5-0.9 0.8-0.8zm-0.4 4.4c-1.7 8.7-4.3 19.3-5.9 27.2-7.4 36-17.6 72.7-39.8 102.6-11 14.9-24.9 27.1-38.5 39.5 1.2 2.4 2.3 4.8 3.1 7.3 7.1 23.1-4.6 46.9-17.5 65.5-6.7 9.6-14.2 18.7-21.1 28-7.1 9.5-13.6 19.4-19.5 29.6-11.9 20.6-21.3 42.6-27.9 65.4-3.4 12-6.2 24.3-6.9 36.8 0.9-1.8 1.9-3.4 2.6-5.3 14.7-39.3 42.4-72.1 68.4-104.1 14.2-17.4 28-35.2 38.8-54.9 10.8-19.6 18.6-39.2 25.3-60.5 13.7-44 26.4-89.4 33.6-134.9 2.1-13.7 4.1-27.8 5.3-42.2zm-175.2 404.8c-0.2 0.2-0.3 0.4-0.3 0.8q0.1-0.5 0.3-0.8zm1.2-1.7q0-0.6 0-1.2c-0.4 0.9-0.9 1.8-1.2 2.9 0.4-0.6 1.2-0.8 1.2-1.7zm174.7-406.6c0.1-0.5-0.1-0.8-0.3-0.9q-0.2 2.2-0.4 4.4 0.4-1.8 0.7-3.5zm-342.8 434.7c-7.5 11.9-17.9 21.4-29.7 28.7 10-4.7 19.7-10.1 28.2-17.2 11-9 19.4-20.6 24.8-33.7 10.9-26.6 10-56.5 4.3-84.1-12-58.5-44.9-110-58.8-167.9-3.4-14-5.2-28.2-5.8-42.4q-2.7-4.2-5.1-8.6-4.5-8.7-8-17.7-0.3 13.4 0.3 26.9c1.4 28.2 7 55.9 15.5 82.8 16.5 52.3 42.4 102.7 48.2 157.9 2.7 25.6 0.2 53-13.9 75.3zm-79.1-529c1.5 1.7 3.2 3.2 5 4.6 3.2-3.3 7.5-5 12.1-3.6 3.1 0.9 5.8 2.7 8.5 4.3 2.4 1.5 4.8 2.5 7.4 3.2q0 0 0-0.1 2.5-4.8 4.2-9.9c4.6-13.4 4.8-27.6 5.3-41.6 0.5-13.5 1.5-26.9 4.1-40.1 2.3-12.1 5.8-23.9 10.5-35.3 4.9-11.7 11-22.9 17.9-33.6 3-4.6 5.9-9.3 9.5-13.5 3.3-3.9 7-7.7 10.6-11.4 7.6-7.6 15.1-15.4 23.9-21.5 10.5-7.3 22.5-12.2 35.1-14.5 12.7-2.3 26.3-2.2 38.9 1 6.1 1.6 12.1 4 17.5 7.3 5.3 3.2 10.5 7.1 14.1 12.2q1.1 1.5 2 3c4.8-1.7 6.4-5.7 6.4-11 0.1-10.9-0.1-21.9-0.1-32.9 0 0-0.2-0.1-0.2-0.1-2.7-6.4-7.7-11-14.2-13.5-12.3-4.9-26.3-2.1-39.2-0.2-13.5 2-26.8 5.2-39.8 9.6-26.4 8.9-49.7 21-71.7 38.2-44.7 35-77 84.6-88.7 140.3-7.5 35.7-9.2 72.5-8.3 108.9 0.9 37.2 2.6 74.6 10.3 111.1 7.4 35.1 19.8 69 26.2 104.3 5.2 28.4 6.4 58.3 1.4 86.7-2.4 13.7-6.5 26.8-13.1 39.1-7.4 13.8-17.6 27.9-17 44.2 0.4 9.4 4.4 18.1 8.1 26.5q5.2 11.5 10.4 22.9c6.6 14.6 13.3 29.1 19.8 43.7 3.1-4.5 6.3-9 9.3-13.5 11.7-17.4 21.9-36.2 26.2-56.9 4.3-20.8 3-42.9-2.1-63.5-4.9-20-11.8-39.5-17.8-59.3-7.5-25.2-12.9-51-17.9-76.8-7.2-37-13.6-74.2-18.6-111.5-4.6-35-8.7-70.1-10-105.4-0.4-12-0.6-24.3 1-36.2 0.6-4 1.4-12.6 6.3-14.2 0.1-0.3 0.6-0.3 0.8 0.1 1.3 3.3 3.5 6.3 5.9 8.9zm42 208.9c-0.5-16 0.7-32.1 3-48.2 3-20.6 7.7-40.9 12.8-61-1.4-4-2.7-8-3.8-12-1.7-6.6-3-13.2-4.7-19.7-6.2 19.4-10.9 39.2-14.4 59.3-3 17.8-5 35.9-5.7 54 3.4 9.6 7.6 18.9 12.8 27.6zm189.4-377c-0.3-5.8-1.3-11.6-3.5-17q-0.6-1.5-1.4-2.9-1.6 0.5-3.3 0.7c-3.8 0.6-7.7 0.4-11.5 0.4q-7.4 0-14.8 0.7c-18.7 1.9-36.5 8.3-50.1 21.6-23.3 22.4-32.1 55.5-47.4 83.1-17.4 31.7-44.9 56.4-62.3 88q-0.7 1.3-1.4 2.5c7.3 1.1 14.6 2 22 2.1 4.5 0 8.9-0.3 13.3-0.9 4.6-9.2 9.9-18 15.6-26.6q1.6-6.1 3.5-12.2c8.1-27.3 19.5-53 34.1-77.5 11.4-19 25.2-40.7 47.1-48.4 8.9-3.1 17.8-3.1 26.7-2 10.3-3.8 22.2-5.1 33.5-3.3 0.1-2.8 0-5.5-0.1-8.3zm3.8 19.3c-12.7-0.8-24.9-4.4-37.5-5.7-21.7 8.5-38.6 26.7-51.2 45.9-8 12.2-14.8 25.1-22 37.8-7.2 12.8-15.2 24.9-23.8 36.7-4.1 5.6-7.6 10.8-11.5 16.5-1.9 6.8-3.7 14.1-5.4 20.9-0.4 1.7-0.9 3.3-1.3 4.9 4.7-0.9 9-3.2 13.8-3.6 14.6-1.3 29.3-0.7 43.9-0.3 13.2 0.4 26.5 0.9 38.9 5.7 5.5 2 10.7 6.2 15.6 9.4 4.2 2.8 8.4 5.9 12.7 8.7 4.8 3 9.9 5.5 15.4 7 7.2 2 14.6 2.4 22 2.1 9.7-0.3 19.1-4.3 26.1-11.3 2.3-2.4 4.4-4.9 6.7-7.3 3.6-3.5 7.9-6 12.3-8.4 12.5-6.9 26.2-10.5 40.3-12.4 17.5-2.4 35.2-3.6 52.8-4.5 17.3-0.9 34.6 0.7 51.8 1.1-5.7-6.3-13.8-9.6-21.2-13.5-8.2-4.3-16-8.8-20.1-17.3-3.7-7.8-5.2-16.4-6.7-24.8-1.5-8.9-3.5-17.6-6.2-26.1-5.6-17.2-14.2-33.7-26.6-46.9-6-6.4-12.8-12.2-20.8-16-7.8-3.7-16.5-5.6-25.1-6.3-18.2-1.5-35.6 0.8-53.1 5.7q0 0-0.1 0c-6.4 1.9-13 2.4-19.7 2zm-165.5 202c3.5-14.1 6.7-28.3 10-42.5q-4.1 0.8-8.3 1.4c-3.2 6.6-6.3 13.4-9.1 20.3 3.6 4.6 5.6 10.3 6.7 16q0.5 2.4 0.7 4.8zm-4.7-11.9c-0.9-2.4-2.1-4.7-3.6-6.8q-2.3 5.7-4.5 11.4-3.5 9.2-6.5 18.7 0.1 0.4 0.2 0.9c2.9 10.2 4.9 20.6 8.1 30.6 3-11.5 6-23 8.9-34.5q0.3-1 0.6-2.1c-0.2-6.2-1-12.4-3.2-18.2zm-32.6-30.8c-3.1-0.7-5.9-2.3-8.6-4-3-1.8-6.3-3.9-9.8-4.1-2.8-0.1-5.4 1.5-7.3 3.4q0 0-0.1 0c3.6 2.6 7.5 4.7 11.4 6.5 3.9 1.8 7.9 3.4 11.9 4.9q1.5-3.3 3.1-6.6-0.3-0.1-0.6-0.1zm-0.8 7.3c3.7 1.4 7.5 2.6 11.2 3.8q3.1 1 6.2 1.9c1.2 0.4 2.4 0.7 3.5 1.2 2.9 1.2 5.6 3.2 7.8 5.5q0.6 0.6 1.1 1.2 3.9-9.3 8.2-18.3 0.2-0.4 0.5-0.9c-8.8 0.9-17.4 0.9-26.4-0.1-2.9-0.4-6-0.7-8.9-1.2q-1.7 3.4-3.2 6.9zm48.6-9.1q2.6-10.8 5.4-21.5c-3.4 5.3-6.7 10.6-9.7 16.1q-1.8 3.3-3.5 6.7 1.8-0.2 3.6-0.6 2.1-0.3 4.2-0.7zm145.7-197.9c-2.2-3.8-5.1-7.1-8.6-9.9-10.5-8.2-23-12.7-36.2-14-12.9-1.3-26.1 0-38.4 4-12.2 4-23.4 10.7-32.9 19.4-7.3 6.6-14.2 13.7-20.9 20.9-3.3 3.5-6.2 7.2-8.9 11.2-3.7 5.5-7.2 11.1-10.5 16.8-6.1 10.7-11.3 21.9-15.3 33.5-4 11.6-6.6 23.6-8.3 35.7-1.9 13.7-2.1 27.5-2.8 41.3-0.7 12.1-2.4 24.2-7.4 35.3 2.3-4.7 4.4-9.3 7.4-13.8 10.3-15.3 22.4-29.3 33.6-43.9 10.8-14 19.9-28.8 27.5-44.7 13.4-28.2 24.9-61.1 52.7-78.4 16.2-10.1 37-12.8 55.8-12.6 4.2 0 8.6 0.4 12.8-0.7q0.2-0.1 0.4-0.1zm-191.8 197.5q-0.1 0.2-0.2 0.4 0 0 0 0 0.1-0.2 0.2-0.4zm1.6-3.3q-0.8 1.6-1.6 3.3 0.9-1.6 1.6-3.3zm159.6-159.8q-1-0.1-2.1-0.1c-13-0.7-24.7 2.8-35.1 10.6-20 15-30.9 38.6-42.5 60.2-10.7 20.1-19.1 40.6-25.4 62.4 1.1-1.6 1.6-2.3 2.8-3.8 8.7-12.2 17.6-24.1 25.3-37 14.4-24.2 26.2-50.9 46.4-71.1 8.8-8.7 19.2-16.3 30.6-21.2zm-189.7 161.7c-1.5 1.9-2.6 4.2-2.5 6.5 0.1 2 1.2 2.6 2.7 3.6q2.2 1.3 4.4 2.7c5.1 3.2 9.3 6.6 14.1 10.3 1.2-3.8 3.4-7.6 5-11.2q-0.9-0.4-1.8-0.7c-7.2-2.8-14.4-6-20.8-10.4q-0.5-0.4-1.1-0.8zm21.1 24.3q0.2 0.2 0.4 0.3c10.4 8.4 18.4 18.5 22.6 31.1q4.9-14.8 10.9-29.2c-0.3-0.3-0.6-0.7-0.9-1.1-2.2-2.3-4.9-4.6-7.9-5.8-1.2-0.5-2.6-0.8-3.9-1.2-2.1-0.6-4.3-1.4-6.4-2.1q-5.3-1.8-10.6-3.8-2.3 5.8-4.2 11.8zm-0.6 2c-3.1 10.4-5 21.2-6.3 32.1-2 17.9-2.8 36.1-1.9 54.1 0.9 19.7 4 39.6 10.1 58.4 1.4-28.5 5.9-56.9 12.8-84.4q3.5-13.9 7.9-27.5 0-0.1-0.1-0.3c-2.2-7.6-5.7-14.6-10.7-20.8-3.5-4.3-7.5-8.1-11.8-11.6zm208.9 28.2c-5.9 3.8-8.5 11-11 17.3-2.7 6.8-4.9 13.8-7.3 20.7-2.8 8.1-7.4 14.9-13.1 20.9 2.7-1.5 5.6-2.6 8.7-2.3 1.8 0.1 3.7 0.6 5.2 1.7 1.5 1 2.8 2.5 3.6 4.1 1.6 3.3 1.9 6.9 1.8 10.5-0.1 2.7-1.1 5.3-2 7.8-0.4 1.1-1 2.1-1.8 3q0.7 0.6 1.3 1.2c3.1 2.7 5.9 5.8 8.9 8.6 3 2.8 6.2 5.4 9.9 7.1 3.5 1.6 7.2 2.8 11.1 2.6 4-0.3 7.4-2.3 10.3-4.9 2.8-2.4 5.2-5.2 7.7-8 2.2-2.5 4.7-5.1 8.1-5.9 2.7-0.7 5.7-0.6 8.5 0 2 0.4 4 1.2 5.3 2.9q0.9-1.8 1.4-3.7c0.9-3.2 1-6.5 0.3-9.8-0.8-3.3-2.4-6.3-4.3-9.1q-0.9-1.1-1.8-2.2-0.1-0.1-0.2-0.1c-1.6-1.4-3-2.9-4.4-4.5-0.4-0.5-1.9-0.9-2.3-1.3-2.7-2.2-5.2-4.6-7.4-7.2-2.5-2.9-4.6-6-6.2-9.5-0.9-2-1.5-4.2-2.1-6.4-0.7-2.5-0.7-5.1-1.2-7.7-0.3-1.2-0.2-2.3-0.3-3.5q-0.1-0.8-0.1-1.5 0-0.2-0.1-0.3c-1.4-3.7-2.4-7.4-3.3-11.2-0.3-1.3-0.6-2.6-1-3.9-0.4-1.1-0.7-2.2-1.6-3.1-0.8-0.7-1.9-1.5-2.7-2.3-0.1 0 0 0-0.2-0.1-6.9-3.8-11.3-3.9-17.7 0.1zm31.2 33.8c0.8 2.4 1.6 4.7 2.7 7 1.8 3.4 4.2 6.5 6.8 9.2q0.5 0.6 1.1 1.1c-1.4-2.5-2.5-5.1-3.8-7.6-2-3.8-4.1-7.6-6-11.4-0.8-1.6-2.4-5.4-3.2-7.1 0.6 2.2 1.8 6.6 2.4 8.8zm-29.1 77.4c-2-0.8-3.9-1.9-5.7-3-3-1.6-5.9-4-8.8-5.7-2.4-1.3-4.9-2.6-7.6-3.5-2.3-0.7-4.3-0.3-6.6-0.4-2.2-0.2-4.4-0.7-6.5-1.5-1.8-0.7-3.6-1.4-5.2-2.4-1.4-0.9-2.7-2-3.7-3.2-2.3-2.6-4-5.8-4.8-9.2-0.7-3-0.6-6.3 0.5-9.2q-0.8 0.3-1.5 0.7c-7.1 3.9-13 9.8-18.1 16-2.2 2.6-3.4 5.4-5.6 8-2.1 2.4-4.1 4.8-6.5 6.8-2.6 2.2-5.5 3.8-8.6 5.1-3.8 1.5-7.9 3.2-11.6 4.9-3.5 1.6-6.9 3.8-8.9 7.2-2.5 4.2-3.3 8.4-2.6 13.1 0.3 2.5 0.9 4.9 1.5 7.4 0.7 2.8 1.4 5.6 2.1 8.4q1.7 6.3 3.3 12.6 0.2-2.9 0.4-5.8c0.2-3 0.3-6 0.5-9 0.2-2.6 0.5-5.4 1.6-7.9 0.8-1.9 1.7-3.9 3-5.6 1-1.4 2.2-2.4 3.8-2.7 0.1-0.3 0.5-0.6 0.8-0.6q0.6 0 1.1 0-0.1-0.1-0.3-0.2c-1.6-0.9-3.2-2-4.3-3.5-0.6-0.8 0.6-1.6 1.3-1.3 7.5 3.3 15.7 5.4 23.8 6.7 3.4 0.5 6.8 0.8 10.3 0.8 4.7-0.1 9.4-0.7 14.1-1.3 9.6-1.1 19.1-1.9 28.7-2.3q3.6-0.1 7.1-0.2c2-0.1 3.9 0 5.8 0.9 1.7 0.8 3.3 1.8 5 2.7 1.6 0.9 3.3 1.2 5.1 1.5 1.6 0.2 3.3 0.6 4.4 1.9 1 1.2 1.1 2.8 0.8 4.3q-0.1 0.6-0.2 1.3 1.9 0 3.8 0 9.8 0.1 19.6 0.2c6.6 0.2 13.1-0.9 19.4-2.9 5.5-1.7 10.9-3.6 16.2-5.8 2.5-1 4.9-2 7.3-3.2-5.6 1.6-11.3 2.8-17.1 3.1-4 0.1-7.9-0.2-11.8-0.7q-6-0.6-11.9-1.4c-4.1-0.6-8.3-1.2-12.5-0.4-3.1 0.6-5.9 1.8-9 2.2-2.6 0.4-5.4 0.5-8-0.3-2.7-0.9-4.3-3-4.8-5.8-0.5-3.4 0.6-6.9 1.3-10.1 0.2-1.3 0.5-2.7 0.4-4-0.1-0.9-0.4-1.8-0.8-2.7zm7.4 28.2c-0.5-2.1-3.3-2.5-5.1-2.7-1.9-0.3-3.6-0.7-5.3-1.6-1.7-0.9-3.2-1.9-4.9-2.7-2-0.9-4.2-0.7-6.3-0.6-4.6 0.1-9.1 0.5-13.7 0.8-4.6 0.4-9.2 0.8-13.8 1.3-4.6 0.6-9.2 1.2-13.8 1.7-4.1 0.4-8.3 0.7-12.4 0.4-3.3-0.3-6.6-0.8-9.8-1.5-4.2-0.8-8.4-1.8-12.5-3.2 2.3 1.1 4.6 2 7 2.7 2.3 0.8 4.6 1.3 7 1.8q4.7 1 9.4 1.9c12.9 2.3 26 3.5 39 4.3 11.5 0.6 23.7 0.8 35.2 1 0.3-1.2 0.2-2.5 0-3.6zm-99-5.5q1.4 1.2 2.7 2.4c6 5.3 11.3 11.3 16.5 17.3 5 5.9 10 11.7 15.8 16.7 2.2 1.9 4.5 3.4 6.9 4.9q3.5 2.3 7.2 4.4c2.5 1.5 5.1 2.8 7.8 4.1 2.7 1.3 5.4 2.6 8.3 3.5 2.8 1 5.6 1.6 8.5 2.1 3.9 0.7 7.8 1.3 11.7 1.7 4.5 0.3 9.1 0.3 13.7 0.2 4.2-0.1 8.3-0.3 12.5-1 4-0.6 7.9-1.6 11.7-3.1 3.7-1.5 7.2-3.6 10.5-5.8 6.6-4.6 12.9-10.1 17.4-16.9 1.9-2.8 3.4-5.8 5-8.8 1.6-3.3 3.3-6.6 5-9.8 2.5-4.9 5.1-9.8 8.2-14.2q-2.7 1.4-5.5 2.7c0.2 0.3 0.2 0.6 0.1 0.9q-1.3 1.8-2.6 3.6c-7.2 9.6-15.2 19.3-25.8 25.4-10.9 6.2-23.7 7.6-36 7.4-6.6-0.1-13.2-0.6-19.7-1.3-7.2-0.7-14.2-1.9-21.2-3.3-6.6-1.2-13.1-2.7-19.5-4.9-5.4-1.8-10.7-4.3-15.2-7.9-2.2-1.8-4.2-4-6.2-6q-3.2-3.2-6.3-6.5c-2-2.1-3.9-4.1-6.4-5.6-1.6-1-3.3-1.8-5.1-2.2zm79.3 32.9c-7-0.7-14-0.9-20.9-2-1.8-0.3-3.5-1-5.3-1.2q-0.7 0-1.3-0.1c3.6 0.8 7.1 1.5 10.7 2.2 7 1.4 14.1 2.3 21.2 3 6.3 0.5 12.6 1 18.9 1 12.3-0.1 24.8-2.2 35.1-9.2 9-6.1 11.1-12.3 17.7-20.8-1.9 1-1.8 0.9-3.5 2.1-0.2 0.1-0.4 0.2-0.5 0.3-2.3 2.4-3.2 5.5-4.7 8.4-0.7 1.4-1.5 2.7-2.6 3.9-1.2 1.3-2.7 2.3-4.1 3.3-2.5 1.9-5.3 3.9-8.5 4.4-1 0.2-2 0.3-3.1 0.7-2.6 0.8-5 2.3-7.6 3.1q-2.3 0.6-4.6 0.6c-1.2 0-2.6-0.1-3.8-0.1-2.4-0.1-4.6 0.5-7 0.9-1.4 0.3-2.6 0.5-4 0.2-2.2-0.5-4.2-0.7-5.9-2.2-4.5 3.7-10.7 2-16.2 1.5zm79.9-30.4q-1.9 0.8-3.8 1.5c-5.7 2.1-11.5 4.3-17.4 5.7-3.2 0.7-6.5 1.2-9.8 1.5-3.3 0.2-6.7 0.1-10.1 0q-9.6-0.1-19.2-0.2-0.3 0.9-0.8 1.8c-0.9 1.8-2.8 3.3-4.1 4.8q-0.2 0.2-0.1 0.2c0 0-0.1-0.1-0.1-0.2-2.4-2.2-5.5-3.4-8.7-3.7-1.5-0.1-3.1 0-4.6 0.5-1.7 0.4-3.1 0.5-4.7 1.1-5.1 1.9-9.1-1.3-13.3-3.6-1.1-0.6-2.2-1.2-3.4-1.4-1.7-0.4-3.4-0.2-5.1 0.2-3.1 0.7-6 1.6-9.2 1.4-5.9-0.3-11.3-3.1-17-4.6-2.8-0.8-5.5-1.2-8.4-0.8q-0.8 0.1-1.5 0.1c1.1 1 2.1 2 3.3 2.9 1.4 1 2.8 1.7 4.1 2.8 1.2 1.1 2.1 2.5 3.1 3.8 0.9 1.1 1.7 2.4 2.8 3.3 1 0.8 2.3 1.2 3.5 1.6 1.2 0.5 2.5 0.9 3.7 1.5 1.2 0.5 2.3 1.4 3.3 2.2 1.1 0.8 2.1 1.7 3.4 2.1 1.6 0.6 3.3 0.4 4.9 0.6 1.7 0.1 3.4 0.1 5 0.5 1.7 0.4 3.4 0.8 5 1.2 6.7 1.4 13.5 1.6 20.3 2 4.9 0.2 10.7 0.7 14.5-3 0.4-0.4 1-0.4 1.4 0 1.8 1.5 4 3.5 6.5 3.7 1.5 0.1 5.5-1.6 6.9-2 2.4-0.6 2.5 0.1 5 0.4 3.1 0.3 5.9 0.3 8.7-0.9 2-0.8 3.8-2.3 5.9-2.8 0.9-0.2 1.8 0.3 2.7 0.1 1.2-0.3 2.2-1.3 3.3-1.9 2.2-1.3 4.2-2.9 6.2-4.5 2.3-1.8 3.7-3.5 4.9-6.1 1.2-2.5 2.6-4.9 4.6-6.9 0.2-0.2 0.1-0.1 0.4-0.3 1.8-1.2 3.7-2.2 5.6-3.3q1.1-0.6 2.3-1.3zm-128.1 4.3c5.6 1.9 9.7 4.8 15.8 3.9 1.7-0.3 5.1-1 6.8-1.4-7.6-0.6-15.1-1.4-22.7-2.5q0.1 0 0.1 0zm67.2 4.2c-12-0.1-24.8-0.4-36.8-1.1 1.3 0.5 2.4 1.2 3.5 1.9 2.1 1.4 4.1 2.9 6.5 3.5 3 0.7 5.4-1.1 8.1-1.9 5-1.5 10.6-0.3 14.5 3.1 1.4-1.7 3.5-3.5 4.3-5.5 0 0-0.1 0-0.1 0zm-80.7-5.9c0.9 0 1.8-0.1 2.7-0.2q-0.9-0.2-1.8-0.3c-3.3-0.7-4.1-0.7-7.3-1.7q0.7 0.6 1.4 1.4c0.2-0.5 0.8-0.8 1.4-0.5 1.1 0.8 2.3 1.3 3.6 1.3zm-4.6 0.4q0.7 0.5 1.4 1c-0.6-0.8-1.2-1.5-1.8-2.2-0.1 0.4-0.1 0.9 0.4 1.2zm1.4 1c0.9 1.2 1.8 2.4 2.7 3.4 2.1 2.1 2.5 2.8 4.6 4.9 2 2 3.1 3.7 5.4 5.3 4.2 3 8.9 5 13.7 6.6q-0.4-0.3-0.8-0.7c-1.1-0.9-2.3-1.6-3.6-2.1-1.3-0.5-2.7-0.9-3.9-1.4-1.2-0.5-2.4-1.2-3.3-2.1-1.1-1-1.9-2.4-2.9-3.6-0.9-1.2-1.7-2.4-3-3.4-1.2-0.9-2.5-1.6-3.7-2.5-1.1-0.8-2-1.7-3-2.6q-1.1-1-2.2-1.8zm82.8-30.2c3.3 0.8 6.9 1.2 10.2 0.2 2.8-0.9 5.2-3.1 7.3-5.1 2.5-2.2 4.1-4.5 6.7-6.5 1.2-0.9 2.5-1.8 3.8-2.4 1.4-0.7 2.8-1 4.3-1.2 2.2-0.3 5.1 0.4 7.3-0.1 1.6-0.3 2.9-1.2 4.1-2.3 1.2-1.3 2.3-2.7 3.2-4.3-1.1-1.9-3.8-2.6-5.7-3-2.5-0.4-5.5-0.4-8 0.4-3.1 1.1-5.5 4-7.6 6.4-2.3 2.7-4.7 5.4-7.4 7.8-2.9 2.4-6.2 4.2-10 4.6-7.7 0.8-14.7-3.4-20.2-8.3-3-2.6-5.7-5.6-8.6-8.4-1.2-1.1-2.4-2.3-3.7-3.4-1.3 1.4-2.8 2.5-4.5 3.3-3 1.5-6.6 2.4-9.7 1.2-1.4-0.5-2.7-1.5-3.4-2.9-0.6-1.5-0.5-3.1 0.3-4.6 0.7-1.4 2.1-2.5 3.6-3.2 1.7-0.7 3.7-0.6 5.5-0.1 2.9 0.8 5.5 2.6 7.9 4.6q0.1-0.2 0.2-0.3c1-1.5 1.5-3.1 2-4.8 0.4-1.1 0.8-2.2 1-3.3 0.1-1.2 0.1-2.4 0-3.6-0.1-3.4-0.8-7.2-3.2-9.9-2.4-2.5-6.1-3.1-9.4-2.3-1.6 0.5-3 1.2-4.4 2q-2.3 1.3-4.4 2.9c-1.2 1-2.3 2.2-3.5 3.4-1.1 1-2.2 1.9-3.2 2.9-0.9 0.8-1.7 1.7-2.2 2.7-0.7 1.3-1 2.7-1.2 4.1-0.3 3.2 1 6.4 2.3 9.2 1.4 2.8 3.4 5.4 6.1 7.1 1.5 0.9 3.2 1.8 4.9 2.2 1.4 0.4 1.2 0.1 2.9 0.1 0.2-0.1 0.7-0.2 1.8-0.2q0 0 0 0 0 0 0.1 0c0.1 0 0.4 0 0.5 0 0.4 0 0.8-0.1 1.2-0.1 0.9 0.1 1.9 0 2.8 0.1 5.6 0.8 10.5 3.7 15.3 6.4 5.2 2.9 9.1 7.3 15 8.7zm-30-29.7c-3.2-1.7-7.4-2.3-10 0.8-1 1.2-1.5 2.9-0.8 4.4 0.6 1.4 2 2.2 3.4 2.5 3.2 0.8 6.7-0.5 9.4-2.2q1.5-0.9 2.7-2.3c-1.5-1.2-3-2.3-4.7-3.2zm221.1 403.5q-4.5 3.7-9.2 7.2c-19.1 14-41.3 25.4-64.9 28.7-9.3 1.3-21.6 2.3-30.5-1.5-1.9-0.8-2.9-1.8-3.4-3-7.4 6.2-14.4 12.8-20.5 20.5-0.3 0.3-0.9 0.2-1.1-0.2-7.8-13-13.6-27.2-17.1-41.9-1.6 2.7-2.9 5.5-4 8.4-4.6 12.5-3.5 27.9 6.9 37.1 0.6 0.5-0.2 1.6-0.9 1.1-16.7-11.1-35.9-23.5-43.8-42.8-6.4-15.4-4.4-34.5-0.1-50.7-0.3-5.3 0.3-9 0.8-14.4 1.3-12.4 4.4-24.6 8.1-36.5 6.9-22.4 16.5-44.1 28.5-64.3 6.1-10.1 12.7-19.9 19.9-29.3 7.1-9.3 14.5-18.3 21-28.1 6.7-10 12.5-21 15.5-32.8 2.9-11.8 2.3-24-2.7-35.1q-0.3 0.2-0.5 0.4c-7.1 6.5-14.2 13.1-20.7 20.2-6 6.5-11 13.8-16.7 20.5-4.7 5.7-10.4 11-16.7 14.8-6.3 3.8-13.5 6-20.6 7.5-14.9 3.2-30.7 3.9-45.7 2-18.3-2.3-36-5.9-52.1-14.9-8.6-4.7-16.5-10.5-24.3-16.4-8.1-6-16.4-11.7-24.8-17.3-15.8-10.5-30.5-22.7-43.8-36.2-9.8-9.9-18.4-21.2-26-32.8 1.6 25.8 8.5 50 17.3 74.5 19.6 54.3 50.8 107.4 51.9 166.6 0.6 25.7-6.6 52.6-23.1 72.8-12.6 15.5-28.5 24.7-46.7 32.3 6.7 4.4 13.1 9.2 19.4 14.1 9.2 7.2 19.3 14.9 28.8 21.8 7.4 5.2 13.9 9.9 21.7 14.5 18.1 10.8 35.3 21.5 54.5 30.2 50.3 22.8 106.6-2.5 152.8-24.6 24.1-11.5 47.6-24.5 69.9-39.2 15-10 29.8-20.8 42.9-33.2zm-19.8-529.7c7.5 20.6 9.9 42.6 9.4 64.8q1.8-3.6 3.6-7.3c7.1-14.8 13.1-30.4 15.7-46.7 0.3-2 0.6-4.1 0.8-6.1 0.2-1.9 0.7-3.9 0.4-5.7-0.3-2.2-2.5-2.6-4.3-3q-3.2-0.7-6.3-1.2-12.8-2.5-25.8-3.6c-17.1-1.4-34.4-1.1-51.5 0.8-8.7 1-17.3 2.4-25.7 4.3-7.4 1.7-14.8 3.6-22 6.1-6.3 2.3-12.5 5.2-18 9.1-2.6 1.9-5 3.9-7.2 6.3 3.6-1.7 7.9-2.4 11.4-3.2 8.5-1.7 17.1-3.4 25.8-4 8.4-0.6 16.4 0 24.6 2 2 0.5 4.2 0.8 6 2q0.6 0.4 1.2 0.9c0.3 0.2 0.1 0.1 0.4 0.3q0.3 0.2 0.6 0.4c1.4 0.9 3 1.5 4.5 2 3.5 1 7.2 1.6 10.8 2.1 0.8 0.2 0.9 1.5 0.2 1.8q-0.1 0.1-0.2 0.2c0.3 0.3 0.5 0.6 0.5 1.1q0 0.1 0 0.1c0.5 3.2-0.1 6.3-1.8 9.1-1.7 2.9-4.2 5.1-6.8 7-2.7 2-5.5 3.6-8.3 5.3-3.3 1.9-6.7 3.4-10.4 4.4-7.3 1.9-14.6 1.8-22 0.4-8.4-1.5-16.3-4.6-24.1-7.9-3.7-1.6-7.3-3.3-11-4.7-2.9-1.1-5.8-2.2-8.6-3.4q-1.1 3.4-1.8 6.9c-0.5 2.6-0.7 5.2-0.9 7.9-0.1 2.6-0.1 5.2 0 7.8 0.3 5.2 1.2 10.3 2.8 15.3 2.7 8 6.4 16.1 12.1 22.5 2.7 3.1 6 5.8 9.7 7.6 4.1 2 8.6 3.1 13.1 3.9 9.8 1.7 19.7 1.4 29.6 0.5 10.6-0.9 21-2.6 31.3-5.1q3.9-1 7.8-2c2.6-0.7 5.1-1.4 7.6-2.3 3.6-1.4 6.8-3.4 9.6-6.1 2.6-2.5 5.1-5.3 6.9-8.5 2.1-3.8 3.5-8 4.6-12.2 1.8-7.4 2.4-15.2 3-22.8q1-13.1 1.1-26.2c0.2-7.7 0.1-15.5-0.5-23.2-0.1-1.3 1.9-1.3 2 0q0.1 1.1 0.1 2.3zm-131.3 27.8c1.2-0.1 2.3-0.3 3.4-0.5 4.5-0.5 8.7 0.3 12.9 1.9 6.4 2.3 13 4.2 19.7 5.1-6.5-3.2-11.1-10.5-10.4-17.7-3 0.5-6 1.3-8.9 2.3q-1.9 0.6-3.6 1.4c-0.1 0-0.3 0.1-0.3 0.1q-0.3 0.1-0.5 0.2-0.4 0.2-0.8 0.4-0.9 0.4-1.9 0.9c-0.7 0.3-1.6 0.8-2.4 1.1-0.3 0.1-0.6 0.1-0.9 0.2q-0.4 0.1-0.8 0.3-1.2 0.6-2.3 1.2c-0.6 0.3-1.2 0.4-1.8 0.6q-0.3 0.4-0.6 0.7-0.3 0.6-0.6 1.2c0 0.1-0.1 0.4-0.2 0.6zm45.3-12.8q0 0 0 0.1 0.2 0 0.4 0c-0.1 0-0.4-0.1-0.4-0.1zm0 0.1q-0.3 0-0.5 0c-2.1-0.1-3.7-0.1-5.7-0.1q-0.1 0.1-0.1 0.1-0.1 0.2-0.2 0.4 0 0 0 0c0 0.1-0.1 0.2-0.1 0.3q0 0.1-0.1 0.2 0 0.1 0 0.2 0 0.1 0 0.2 0 0.4 0 0.8 0 0.1 0 0.2 0.1 0.2 0.1 0.4 0.2 0.4 0.3 0.7c0 0 0 0.1 0.1 0.2 0 0 0 0.1 0 0.1q0.3 0.7 0.7 1.3 0 0 0.1 0.1 0 0 0 0 0.1 0.1 0.2 0.2 0.2 0.2 0.3 0.3 0.2 0.1 0.5 0.3c0 0 0.1 0 0.1 0.1q0.1 0 0.2 0c0.2 0.1 0.5 0.1 0.7 0.2q0 0 0 0 0 0 0 0 0.2 0 0.3 0 0.3 0 0.6 0c0.1 0-0.2 0.1-0.1 0.1 0.2-0.1 0.4-0.3 0.6-0.4 0 0 0.4-0.2 0.4-0.3 0.2-0.1-0.1 0.1 0.1 0q0 0 0.1-0.1c0 0 0.1-0.1 0.1-0.1q0.3-0.3 0.6-0.6 0 0 0.1-0.1 0 0 0-0.1 0.2-0.2 0.3-0.5c0.1 0 0.2-0.4 0.3-0.4q0.2-0.6 0.3-1.1 0-0.1 0-0.1 0-0.1 0-0.2 0-0.3 0-0.6 0-0.3 0-0.5 0 0 0 0 0-0.3-0.1-0.6c0 0-0.1-0.4-0.2-0.6zm0.4 0q0.1 0 0.1 0-0.1 0-0.1 0zm-15.9 11c2 3.3 3.9 5.3 7.7 6.5 3.7 1.1 7.2 0.5 10.5-1.5 3.1-1.8 5.4-4.8 6.4-8.3 0.7-2.3 0.6-4.6 0-6.8q-0.1 0-0.1 0-2.2-0.4-4.4-0.6 0.2 0.7 0.2 1.4c-0.1 2.8-1.5 5.4-3.7 7.1-2.3 1.6-5 1.9-7.5 0.5-2.6-1.3-4.1-4.5-4.3-7.3q-0.1-0.9 0.1-1.8-1 0.1-2.1 0.2-0.6 0.1-1.1 0.2c-0.1 0-0.3 0-0.4 0q-1.2 0.2-2.4 0.4-0.5 0-1 0.1c-0.5 3.4 0.3 6.9 2.1 9.9zm24.5-10.3q0-0.1-0.1-0.3c-0.2-0.1 0 0.2 0.1 0.3zm0.1 0.2c0 0 0-0.1-0.1-0.2q0 0.1 0.1 0.2zm-14 4.7q0 0 0 0c-0.1-0.1-0.2-0.2 0 0zm11.2 11.9q0.3-0.1 0.6-0.2c1.6-0.5 2.9-1.9 4.5-2.4 5.6-1.9 11-4.1 16-7.1 1.2-0.7 1.9-1.1 3.3-1.3 0.2 0 1 0.1 1.2 0q-1.6-0.2-3.2-0.5c-1.7-0.4-3.5-0.9-5.3-1.3-1.7-0.5-2.6-1.9-4.3-2.5-2-0.7-2.9-0.5-6.8-1 0.7 2.9 0.6 6.3-0.4 9.1-1.2 2.9-3.2 5.4-5.6 7.2zm-0.7 1.4c11.1-1.7 21.4-6.8 31.4-12.1q0-0.1-0.1-0.1-0.4 0-0.7 0-0.5 0-1 0.1-1.4 0.1-2.9 0.6c-2.4 1-4.6 2.6-6.9 3.8q-3.6 2-7.4 3.5c-2.5 1-5.1 1.9-7.7 2.7q-2 0.7-3.9 1.3-0.4 0.1-0.8 0.2zm-51.4-6.2q0 0 0 0 0 0 0 0 0 0 0 0zm-121.4 3.2q0.2-0.2 0.3-0.3 0.2-0.4 0.5-0.7 0.5-0.8 1.2-1.5c1.9-2 4.4-3.4 7-4.4q-0.6-0.2-1.2-0.3c-1.3-0.4-2.6-0.9-3.8-1.6-1.4-0.9-2.8-1.8-4.3-2.6-1.1-0.5-2.1-0.9-3.4-1.2q0 0.6 0 1.1c0 1.3 0.3 2.6 0.4 3.9 0.2 2.7-0.7 5.7-2.4 7.8-3.3 4.3-9.1 5.5-14.3 5.7-5.7 0.1-12.6-1.7-15.8-6.9-1.6-2.6-2-6.2-0.9-9.1q-0.1 0-0.3 0.1c-1.2 0.4-2.4 1-3.6 1.7q-1.9 1.1-3.8 2.4-0.9 0.6-1.8 1.3-0.2 0.1-0.4 0.3-0.1 0.1 0 0-0.2 0.1-0.4 0.3-0.3 0.2-0.6 0.4c-1 0.7-2.1 1.2-3.3 1.7-2.9 1.2-3.6 1.3-6.7 1.8 1.1 0.1 0 0 1.1 0 3.7 0.3 6.7 0.8 10.2 1.6 14 3.2 30 8.1 43.5 1 1.1-0.6 1.8-1.2 2.7-2.3 0 0 0.1-0.1 0.1-0.1q0-0.1 0-0.1zm14-10.2c-1.5-1.2-3.3-2.1-5-2.8-1.7-0.7-3.5-1.1-5.3-1.5 0.9 0.5 1.8 1.1 2.6 1.6 2.1 1.2 4.3 1.8 6.5 2.6q0.6 0.1 1.2 0.1zm-20.3-2.6q-0.1 0-0.2-0.1-1.1 0-2.2 0.1c-1.1 0-1.3 0.1-2.3 0.2 0.5 0.9 0.6 2 0.7 3.1 0.2 2.9-1.4 6.8-4 8.3-2.5 1.3-5.3 0.9-7.8-0.3-2.6-1.3-4.4-4.3-4.5-7.1-0.1-1.1 0.1-2.2 0.4-3.3-0.5 0.1-1.7 0.1-2.2 0.1-1.8 0-3.7 0.3-5.5 0.8-1 1.2-1.5 2.9-1.5 4.6 0.1 2.7 1.4 5.1 3.5 6.8 2.3 1.8 5.2 2.7 8 3 2.7 0.4 4.3 0.3 6.9-0.2 4.5-1 9.7-3.5 10.6-8.6 0.4-2.4 0.5-4.8 0.1-7.4zm0.4 0c0.2 0 0.3 0 0.3 0q-0.1 0-0.3 0zm-0.4-0.1q0 0 0 0.1 0.2 0 0.4 0c-0.2 0-0.5-0.1-0.4-0.1zm-9.1 3.4q0 0 0 0-0.1-0.4-0.2-0.8 0 0 0 0 0 0 0 0-0.1-0.2-0.2-0.4-0.1-0.2-0.3-0.5 0 0 0 0 0 0 0 0-0.2-0.2-0.3-0.3c-0.2-0.2 0.1-0.4-0.1-0.5q0 0 0 0-0.9 0-1.9 0.1-2 0-4 0-0.2 0.3-0.4 0.6c-0.1 0.1-0.1 0.3-0.2 0.4q0 0 0 0-0.1 0.4-0.2 0.7-0.1 0.3-0.1 0.5c-0.1 0.3-0.1 0.1 0 0-0.1 0.2-0.1 0.6-0.1 0.8q0 0.2 0.1 0.4-0.1 0-0.1 0 0 0 0.1 0 0 0 0 0c0 0.2 0 0.2 0 0.1 0 0.2 0.1 0.5 0.1 0.6 0 0.1 0.2 0.5 0.2 0.5q0.1 0.2 0.2 0.4c0 0.1 0.3 0.4 0.3 0.4q0.1 0.3 0.3 0.5c0.1 0 0.2 0.1 0.3 0.2q0 0 0 0 0.3 0.2 0.5 0.3c0.2 0.1 0.9 0.4 0.4 0.2 0.3 0.1 0.9 0.4 1.3 0.4-0.1 0-0.3 0 0 0q0.2 0 0.3 0 0.4 0 0.8 0 0 0 0.1 0c0.1 0 0.2 0 0.2 0 0.3-0.1 0.1-0.1 0.3-0.2q0 0 0.1 0c0 0 0.1-0.1 0.1-0.1q0.1 0 0.1 0 0 0-0.1 0 0.4-0.2 0.7-0.4c0.1 0 0.4-0.3 0.1-0.1q0.1-0.1 0.3-0.2 0.2-0.2 0.4-0.5c0.1 0 0.2-0.3 0.3-0.4q0.2-0.3 0.3-0.6c0.1-0.1 0.1-0.2 0.1-0.2q0.1-0.2 0.1-0.4 0.1-0.2 0.1-0.4 0 0 0-0.1 0.1-0.3 0.1-0.6-0.1-0.2-0.1-0.4zm-1.6 3.8q0 0 0 0 0 0 0 0zm-0.7 0.5q0 0 0 0 0 0 0 0zm-25.5-7q-0.9 0.1-1.8 0.3c-4.2 1.1-8.1 2.9-11.8 5q-3 1.7-5.9 3.7 2.2-0.4 4.4-0.8 1.9-0.4 3.8-0.9c2.7-1.7 5.2-3.6 7.8-5.3q1.7-1.1 3.5-2zm161.7 556.3c-12.7-19-25.2-39.1-30.8-61.5q-1.8-7.2-2.5-14.6c-3.5 15.3-4.1 31.4 2.4 45.6 7.1 15.4 20.8 26.2 34.6 35.6-1.3-1.7-2.6-3.3-3.7-5.1zm221.6-164.2c-1.1-14.3-3.2-28.5-6-42.4-2.5-12-7.8-22.9-13.7-33.5-6.7-12.3-13.1-24.7-17.7-38q-1.6-4.7-3-9.5c-3 13.5-5.7 26.7-10.3 39.8-0.1 13.7-0.8 27.4-2.4 41.1-5 43.1-18.9 86-43.7 121.9-12.1 17.4-28.1 32.7-44.8 45.6-10.6 8.2-21.8 15.8-32.3 24.2 0.9 2.4 4.7 3.4 7 3.8 20.1 3.7 41-1.6 59.2-10 19.1-8.8 36.8-21.2 52-36.1q0.8-0.7 1.5-1.5 0.1-0.2 0.3-0.2c15-15 27.4-32.4 36.3-51.3 8.2-17.2 13.8-35.3 17.6-53.9zm-10.7 102.9q4.4-8.6 8.4-17.4c28-61.8 41.6-130.7 37.9-198.6q-0.1-0.4-0.2-0.8c-0.1-0.2 0-0.3 0.1-0.4-0.8-15.5-2.6-31-5.3-46.4-3.6-20.2-8.8-40-15.7-59.4-4.5-12.6-9.8-24.7-15.7-36.7 4.4 26.5 7.4 53.3 9.3 80.1 2 30.5 2.6 61 1.8 91.4-0.8 28.4-2.7 56.8-8.4 84.7q-0.1 0.4-0.2 0.9c1.3 14.3 1.6 28.7 0.6 43.1-1.5 20.4-6 40.3-12.6 59.5zm54-64.9c-7.2 19.8-9.7 42.1-12.3 62.1-5.7 43.5-8.6 88-1.3 131.5q1.7-2.8 3.6-5.4c13.4-18.2 37.2-28.3 59.6-25.1 2.9 0.4 5.8 1.2 8.7 1.9 3.5 0.7 7.6 0.7 9.4-3 1.4-2.8 1.1-6.2 0.9-9.2q-0.4-5.3-0.8-10.5c-1.1-14.5-2.5-29-4.6-43.3-4.1-28.3-11.2-56.6-24.9-81.9-5.9-10.9-14.7-25.9-29.5-21.2-3 1-6 2.4-8.8 4.1zm228.8 186.1q0-5.3 0.1-10.6c-0.1-41.4-2.4-83-10.6-123.6-4-19.7-9.6-38.8-16.5-57.6-4.3-11.7-8.6-23.5-14-34.8-4.6-9.5-9.9-18.7-16.8-26.9-6.9-8.2-15.4-15.1-24.6-20.6-11.8-7-24.7-12-37.8-16.1-7.6-2.3-15.4-4.7-23.2-6.2-7-1.3-14.1-1.8-21.2-2.4-7.6-0.6-15.3-1.1-22.9-2-6.1-0.8-12.3-1.6-18-3.9-6.9-2.8-13.5-7.7-18.8-12.9-4.4-4.4-8.1-9.4-10.6-15.1 2.9 68.1-11.3 136.7-39.9 198.5 3-5.1 6.2-10.1 9.5-15 6.8-10.3 14.4-20.2 23.4-28.6 3.7-3.4 7.6-6.6 11.9-9.2 1.6-4.4 3.5-8.8 5.7-13 8.1-15.8 22.8-30.6 39.7-36.9 8.1-3.1 16.9-4.1 25.5-2.8 9.8 1.6 18.9 6.1 27.1 11.5 15.2 10 28.9 22.6 41.1 36.1 11.9 13.3 22.5 27.7 31.9 42.9 9.6 15.6 17.9 32 25.3 48.8 7.5 16.7 12.6 34.9 18.6 52.2 5.4 16 10.4 32 15.1 48.2zm-628.6-616q0 0.1 0 0z"/>
			<path id="&lt;Path&gt;" class="s4" d="m538.6 536.9c-0.1 0-0.1 0.2 0 0.2 0.2 0 0.2-0.2 0-0.2z"/>
			<path id="&lt;Path&gt;" class="s4" d="m481.1 452.3q0 0 0 0.1 0-0.1 0-0.1 0 0 0 0z"/>
			<path id="&lt;Path&gt;" class="s4" d="m486.5 455.7q0.1-0.1 0.1-0.1 0 0 0 0 0 0 0 0-0.2 0.1-0.1 0.1z"/>
		</g>
	</g>
</svg>